<svg width="174" height="80" viewBox="0 0 174 80" fill="none" xmlns="http://www.w3.org/2000/svg">
<path d="M27.36 31.648L32.096 31.008L29.824 41.696C30.848 41.6107 31.7867 41.1627 32.64 40.352C33.5147 39.5413 34.1973 38.5387 34.688 37.344C35.1787 36.1493 35.424 34.976 35.424 33.824C35.424 32.544 35.0933 31.4987 34.432 30.688C33.7707 29.8773 32.7787 29.472 31.456 29.472C28.8533 29.472 26.816 30.1547 25.344 31.52C23.8933 32.8853 23.168 34.7947 23.168 37.248C23.168 38.0373 23.2427 38.592 23.392 38.912C23.5413 39.2107 23.616 39.3813 23.616 39.424C22.464 39.424 21.6 39.1893 21.024 38.72C20.4693 38.2293 20.192 37.4293 20.192 36.32C20.192 34.9547 20.7467 33.632 21.856 32.352C22.9867 31.0507 24.4267 30.0053 26.176 29.216C27.9253 28.4053 29.6747 28 31.424 28C33.1093 28 34.5173 28.288 35.648 28.864C36.7787 29.44 37.6107 30.208 38.144 31.168C38.6987 32.1067 38.976 33.152 38.976 34.304C38.976 35.6907 38.592 37.0453 37.824 38.368C37.0773 39.6907 36 40.7787 34.592 41.632C33.184 42.464 31.5627 42.88 29.728 42.88H29.568L27.616 52H23.008L27.36 31.648ZM43.0158 52.128C41.4371 52.128 40.1891 51.7227 39.2718 50.912C38.3544 50.1013 37.8957 48.8213 37.8957 47.072C37.8957 45.6213 38.1944 44.0107 38.7918 42.24C39.3891 40.4693 40.3491 38.944 41.6718 37.664C42.9944 36.3627 44.6584 35.712 46.6638 35.712C49.3944 35.712 50.7598 37.4187 50.7598 40.832V40.864C50.8238 40.8853 50.9411 40.896 51.1118 40.896C51.8158 40.896 52.6264 40.7147 53.5438 40.352C54.4611 39.968 55.2931 39.5093 56.0398 38.976L56.3278 39.84C55.7091 40.5013 54.8984 41.0667 53.8958 41.536C52.9144 41.984 51.8371 42.304 50.6638 42.496C50.4931 44.4373 50.0558 46.1333 49.3518 47.584C48.6478 49.0347 47.7411 50.1547 46.6318 50.944C45.5224 51.7333 44.3171 52.128 43.0158 52.128ZM44.2958 49.248C44.8078 49.248 45.3198 48.96 45.8318 48.384C46.3438 47.7867 46.7918 46.9867 47.1758 45.984C47.5598 44.96 47.8371 43.8293 48.0078 42.592C47.4318 42.464 47.1438 42.016 47.1438 41.248C47.1438 40.3733 47.4744 39.7973 48.1358 39.52C48.0931 38.816 47.9864 38.336 47.8158 38.08C47.6451 37.8027 47.3464 37.664 46.9198 37.664C46.2158 37.664 45.5331 38.176 44.8718 39.2C44.2104 40.224 43.6771 41.4507 43.2718 42.88C42.8664 44.3093 42.6638 45.568 42.6638 46.656C42.6638 47.68 42.7811 48.3733 43.0158 48.736C43.2504 49.0773 43.6771 49.248 44.2958 49.248ZM56.9823 52.192C55.4036 52.192 54.1769 51.7867 53.3023 50.976C52.4276 50.144 51.9902 48.8533 51.9902 47.104C51.9902 45.632 52.2782 44.0107 52.8543 42.24C53.4516 40.4693 54.3903 38.944 55.6703 37.664C56.9716 36.3627 58.6143 35.712 60.5983 35.712C61.8783 35.712 62.7849 35.9893 63.3183 36.544C63.8729 37.0987 64.1503 37.8027 64.1503 38.656C64.1503 39.4027 63.9903 39.9787 63.6703 40.384C63.3503 40.7893 62.9449 40.992 62.4543 40.992C62.0916 40.992 61.7183 40.864 61.3343 40.608C61.5903 39.904 61.7183 39.2747 61.7183 38.72C61.7183 38.3147 61.6436 37.9947 61.4943 37.76C61.3449 37.5253 61.1209 37.408 60.8223 37.408C60.1823 37.408 59.5423 37.9307 58.9023 38.976C58.2623 40.0213 57.7396 41.2907 57.3343 42.784C56.9289 44.2773 56.7263 45.6213 56.7263 46.816C56.7263 47.8613 56.9076 48.576 57.2703 48.96C57.6329 49.3227 58.2196 49.504 59.0303 49.504C60.1823 49.504 61.1636 49.2373 61.9743 48.704C62.8063 48.1707 63.7129 47.36 64.6943 46.272H65.7823C63.4143 50.2187 60.4809 52.192 56.9823 52.192ZM76.7195 52.192C75.3968 52.192 74.3942 51.8827 73.7115 51.264C73.0288 50.624 72.6875 49.7173 72.6875 48.544C72.6875 48.032 72.7515 47.4773 72.8795 46.88L73.1355 45.632C73.2208 45.2693 73.2635 44.8747 73.2635 44.448C73.2635 43.424 72.8795 42.912 72.1115 42.912C71.7702 42.912 71.4075 43.008 71.0235 43.2C70.6608 43.392 70.2342 43.6907 69.7435 44.096L68.0795 52H63.4715L68.1115 30.24L72.8475 29.6L70.5435 40.384L71.6635 39.488C73.2208 38.2293 74.2875 37.3867 74.8635 36.96C75.4395 36.512 75.9302 36.2133 76.3355 36.064C76.7622 35.8933 77.2528 35.808 77.8075 35.808C78.2128 35.808 78.5222 35.9893 78.7355 36.352C78.9488 36.7147 79.0555 37.0667 79.0555 37.408C79.0555 37.8987 78.8208 38.3467 78.3515 38.752C77.9035 39.136 77.4448 39.328 76.9755 39.328C76.8262 39.328 76.6768 39.296 76.5275 39.232C76.3782 39.168 76.2822 39.1253 76.2395 39.104C76.0048 38.9547 75.7808 38.88 75.5675 38.88C75.1408 38.88 74.6395 39.0507 74.0635 39.392C73.5088 39.712 72.7622 40.2347 71.8235 40.96C72.7835 40.5333 73.6582 40.32 74.4475 40.32C75.5995 40.32 76.4742 40.672 77.0715 41.376C77.6688 42.08 77.9675 42.976 77.9675 44.064C77.9675 44.512 77.9248 44.9173 77.8395 45.28L77.4875 46.88C77.3808 47.264 77.3275 47.6053 77.3275 47.904C77.3275 48.6933 77.7435 49.088 78.5755 49.088C79.2155 49.088 79.7275 48.864 80.1115 48.416C80.4955 47.9467 80.8795 47.232 81.2635 46.272H82.6075C81.2848 50.2187 79.3222 52.192 76.7195 52.192ZM86.242 60C85.2393 60 84.354 59.6693 83.586 59.008C82.8393 58.368 82.466 57.5467 82.466 56.544C82.466 55.6053 82.7007 54.8373 83.17 54.24C83.6393 53.6427 84.2473 53.1733 84.994 52.832C85.7407 52.4907 86.7433 52.128 88.002 51.744L88.322 50.336C87.234 51.5733 85.9327 52.192 84.418 52.192C83.394 52.192 82.562 51.872 81.922 51.232C81.3033 50.592 80.994 49.632 80.994 48.352C80.994 47.8187 81.0793 47.1253 81.25 46.272L83.426 36H88.034L85.73 46.88C85.666 47.136 85.634 47.4027 85.634 47.68C85.634 48.6187 85.954 49.088 86.594 49.088C87.1913 49.088 87.7033 48.8427 88.13 48.352C88.5567 47.84 88.898 47.1467 89.154 46.272L91.33 36H95.97L92.066 54.56C91.6393 56.608 90.882 58.0267 89.794 58.816C88.7273 59.6053 87.5433 60 86.242 60ZM85.506 57.152C85.89 57.152 86.2527 56.9493 86.594 56.544C86.9353 56.16 87.202 55.5307 87.394 54.656L87.778 52.768C86.6473 53.152 85.7727 53.6 85.154 54.112C84.5353 54.624 84.226 55.2853 84.226 56.096C84.226 56.352 84.354 56.5867 84.61 56.8C84.866 57.0347 85.1647 57.152 85.506 57.152ZM114.682 52.416C113.402 52.416 112.101 51.8507 110.778 50.72L110.522 52H105.914L110.266 31.648L115.002 31.008L111.162 48.96C111.76 49.3867 112.368 49.6 112.986 49.6C114.202 49.6 115.269 48.896 116.186 47.488C117.125 46.08 117.85 44.288 118.362 42.112C118.874 39.936 119.13 37.7387 119.13 35.52C119.13 33.4293 118.714 31.904 117.882 30.944C117.072 29.9627 115.93 29.472 114.458 29.472C112.858 29.472 111.418 29.792 110.138 30.432C108.88 31.0507 107.888 31.9467 107.162 33.12C106.437 34.2933 106.074 35.6693 106.074 37.248C106.074 38.0373 106.149 38.592 106.298 38.912C106.448 39.2107 106.522 39.3813 106.522 39.424C105.413 39.424 104.56 39.1893 103.962 38.72C103.386 38.2507 103.098 37.4933 103.098 36.448C103.098 34.9973 103.642 33.6213 104.73 32.32C105.818 31.0187 107.269 29.9733 109.082 29.184C110.917 28.3947 112.89 28 115.002 28C117.925 28 120.08 28.864 121.466 30.592C122.853 32.32 123.546 34.528 123.546 37.216C123.546 39.648 123.13 42.048 122.298 44.416C121.488 46.7627 120.4 48.6827 119.034 50.176C117.669 51.6693 116.218 52.416 114.682 52.416ZM128.797 52.128C127.218 52.128 125.97 51.7227 125.053 50.912C124.136 50.1013 123.677 48.8213 123.677 47.072C123.677 45.6213 123.976 44.0107 124.573 42.24C125.17 40.4693 126.13 38.944 127.453 37.664C128.776 36.3627 130.44 35.712 132.445 35.712C135.176 35.712 136.541 37.4187 136.541 40.832V40.864C136.605 40.8853 136.722 40.896 136.893 40.896C137.597 40.896 138.408 40.7147 139.325 40.352C140.242 39.968 141.074 39.5093 141.821 38.976L142.109 39.84C141.49 40.5013 140.68 41.0667 139.677 41.536C138.696 41.984 137.618 42.304 136.445 42.496C136.274 44.4373 135.837 46.1333 135.133 47.584C134.429 49.0347 133.522 50.1547 132.413 50.944C131.304 51.7333 130.098 52.128 128.797 52.128ZM130.077 49.248C130.589 49.248 131.101 48.96 131.613 48.384C132.125 47.7867 132.573 46.9867 132.957 45.984C133.341 44.96 133.618 43.8293 133.789 42.592C133.213 42.464 132.925 42.016 132.925 41.248C132.925 40.3733 133.256 39.7973 133.917 39.52C133.874 38.816 133.768 38.336 133.597 38.08C133.426 37.8027 133.128 37.664 132.701 37.664C131.997 37.664 131.314 38.176 130.653 39.2C129.992 40.224 129.458 41.4507 129.053 42.88C128.648 44.3093 128.445 45.568 128.445 46.656C128.445 47.68 128.562 48.3733 128.797 48.736C129.032 49.0773 129.458 49.248 130.077 49.248ZM141.356 52.192C140.332 52.192 139.5 51.872 138.86 51.232C138.241 50.592 137.931 49.632 137.931 48.352C137.931 47.8187 138.017 47.1253 138.188 46.272L141.612 30.24L146.348 29.6L142.668 46.88C142.582 47.2 142.54 47.5413 142.54 47.904C142.54 48.3307 142.636 48.64 142.828 48.832C143.041 49.0027 143.382 49.088 143.852 49.088C144.47 49.088 145.046 48.832 145.58 48.32C146.113 47.7867 146.497 47.104 146.732 46.272H148.076C147.286 48.576 146.273 50.144 145.036 50.976C143.798 51.7867 142.572 52.192 141.356 52.192ZM149.823 52.192C148.799 52.192 147.967 51.872 147.327 51.232C146.708 50.5707 146.399 49.5893 146.399 48.288C146.399 47.7547 146.484 47.0613 146.655 46.208L150.079 30.176L154.815 29.536L151.135 46.816C151.049 47.136 151.007 47.4453 151.007 47.744C151.007 48.5973 151.444 49.024 152.319 49.024C152.703 49.024 153.044 48.96 153.343 48.832C153.257 49.8987 152.873 50.7307 152.191 51.328C151.529 51.904 150.74 52.192 149.823 52.192Z" fill="#3497ED"/>
</svg>
